<svg id="Layer_1" enable-background="new 0 0 512 512" height="512" viewBox="0 0 512 512" width="512" xmlns="http://www.w3.org/2000/svg"><path d="m256 0c-141.385 0-256 114.615-256 256s114.615 256 256 256 256-114.615 256-256-114.615-256-256-256zm32 328h-88c-8.837 0-16-7.164-16-16s7.163-16 16-16h88c22.056 0 40-17.944 40-40s-17.944-40-40-40h-81.373l4.687 4.687c10.109 10.107 2.811 27.313-11.314 27.313-4.095 0-8.189-1.562-11.313-4.687-33.949-33.949-33.457-32.908-35.147-36.501-1.208-2.558-1.745-5.497-1.459-8.394.74-7.601 2.476-7.602 36.607-41.733 6.248-6.249 16.379-6.249 22.627 0 6.249 6.248 6.249 16.379 0 22.627l-4.688 4.688h81.373c39.701 0 72 32.299 72 72s-32.299 72-72 72z"/></svg>